<?xml version="1.0" standalone="no"?>
<!DOCTYPE svg PUBLIC "-//W3C//DTD SVG 20010904//EN"
 "http://www.w3.org/TR/2001/REC-SVG-20010904/DTD/svg10.dtd">
<svg version="1.0" xmlns="http://www.w3.org/2000/svg"
 width="240.000000pt" height="240.000000pt" viewBox="0 0 240.000000 240.000000"
 preserveAspectRatio="xMidYMid meet">

<g transform="translate(0.000000,240.000000) scale(0.100000,-0.100000)"
fill="#000000" stroke="none">
<path d="M766 1714 c-170 -41 -313 -174 -374 -348 -34 -99 -34 -233 0 -332
131 -375 593 -485 871 -209 56 57 116 138 88 121 -16 -10 -14 -2 10 38 l21 36
-44 0 c-40 0 -46 -3 -85 -54 -49 -64 -113 -110 -191 -137 -45 -16 -76 -20
-147 -17 -112 5 -180 33 -262 110 -43 40 -51 45 -35 21 59 -84 184 -157 295
-172 135 -19 272 25 372 120 74 70 70 44 -4 -30 -241 -241 -655 -154 -782 166
-20 49 -23 76 -23 173 0 136 18 195 92 293 173 226 511 248 713 46 74 -74 78
-100 4 -30 -100 95 -244 141 -375 121 -111 -18 -235 -91 -292 -173 -16 -24 -8
-19 35 21 82 77 150 105 262 110 71 3 102 -1 147 -17 78 -27 142 -73 191 -137
39 -51 45 -54 85 -54 l44 0 -21 36 c-24 40 -26 48 -10 38 28 -17 -32 64 -88
121 -131 130 -318 182 -497 139z"/>
<path d="M1177 1327 c-15 -10 -87 -221 -87 -254 0 -8 15 -13 40 -13 44 0 54
11 64 75 12 70 20 71 59 7 20 -33 43 -65 52 -72 28 -23 59 -3 100 64 22 36 42
63 45 60 3 -3 12 -33 20 -67 l16 -62 42 -3 c33 -2 42 0 42 13 0 34 -64 231
-81 249 -28 30 -61 8 -109 -73 -23 -39 -45 -71 -49 -71 -3 0 -19 24 -36 52
-38 65 -73 108 -89 108 -7 0 -20 -6 -29 -13z"/>
<path d="M732 1198 l3 -133 40 0 c40 0 40 0 45 43 l5 43 60 -43 c54 -38 66
-43 122 -44 35 -1 63 -1 63 1 0 2 -40 31 -90 64 -49 34 -90 65 -90 69 0 4 39
34 86 67 l86 60 -61 3 c-57 3 -64 1 -115 -38 -30 -22 -58 -40 -61 -40 -3 0 -5
18 -5 40 l0 40 -45 0 -46 0 3 -132z"/>
<path d="M1768 1313 c-25 -29 -178 -242 -178 -248 0 -3 22 -5 50 -4 l50 2 61
84 61 84 29 -38 c42 -55 38 -65 -21 -62 -43 2 -52 -1 -70 -23 -11 -14 -20 -31
-20 -37 0 -7 48 -11 150 -11 83 0 150 3 150 6 0 10 -162 238 -178 252 -23 17
-66 15 -84 -5z"/>
</g>
</svg>
